<svg width="108" height="52" viewBox="0 0 108 52" fill="none" xmlns="http://www.w3.org/2000/svg">
<path d="M55.1548 15.6378C55.098 15.0649 54.8542 14.6198 54.4233 14.3026C53.9924 13.9853 53.4077 13.8267 52.669 13.8267C52.1671 13.8267 51.7434 13.8977 51.3977 14.0398C51.0521 14.1771 50.7869 14.3688 50.6023 14.6151C50.4223 14.8613 50.3324 15.1406 50.3324 15.4531C50.3229 15.7135 50.3774 15.9408 50.4957 16.1349C50.6188 16.3291 50.7869 16.4972 51 16.6392C51.2131 16.7765 51.4593 16.8973 51.7386 17.0014C52.018 17.1009 52.3163 17.1861 52.6335 17.2571L53.9403 17.5696C54.5748 17.7116 55.1572 17.901 55.6875 18.1378C56.2178 18.3745 56.6771 18.6657 57.0653 19.0114C57.4536 19.357 57.7543 19.7642 57.9673 20.233C58.1851 20.7017 58.2964 21.2391 58.3011 21.8452C58.2964 22.7353 58.0691 23.5071 57.6193 24.1605C57.1742 24.8092 56.5303 25.3134 55.6875 25.6733C54.8494 26.0284 53.8385 26.206 52.6548 26.206C51.4806 26.206 50.4579 26.026 49.5866 25.6662C48.7202 25.3063 48.0431 24.7737 47.5554 24.0682C47.0724 23.358 46.8191 22.4796 46.7955 21.4332H49.7713C49.8045 21.9209 49.9441 22.3281 50.1903 22.6548C50.4413 22.9768 50.7751 23.2206 51.1918 23.3864C51.6132 23.5473 52.089 23.6278 52.6193 23.6278C53.1402 23.6278 53.5923 23.5521 53.9759 23.4006C54.3641 23.2491 54.6648 23.0384 54.8778 22.7685C55.0909 22.4986 55.1974 22.1884 55.1974 21.8381C55.1974 21.5114 55.1004 21.2367 54.9062 21.0142C54.7169 20.7917 54.4375 20.6023 54.0682 20.446C53.7036 20.2898 53.2562 20.1477 52.7259 20.0199L51.142 19.6222C49.9157 19.3239 48.9474 18.8575 48.2372 18.223C47.527 17.5885 47.1742 16.7339 47.179 15.6591C47.1742 14.7784 47.4086 14.009 47.8821 13.3509C48.3603 12.6927 49.0161 12.179 49.8494 11.8097C50.6828 11.4403 51.6297 11.2557 52.6903 11.2557C53.7699 11.2557 54.7121 11.4403 55.517 11.8097C56.3267 12.179 56.9564 12.6927 57.4062 13.3509C57.8561 14.009 58.0881 14.7713 58.1023 15.6378H55.1548ZM62.4648 26L59.4961 15.0909H62.5572L64.2475 22.4205H64.3469L66.1083 15.0909H69.1126L70.9023 22.3778H70.9947L72.6566 15.0909H75.7106L72.7489 26H69.5458L67.6708 19.1392H67.5359L65.6609 26H62.4648ZM82.0227 26.2131C80.9006 26.2131 79.9347 25.9858 79.125 25.5312C78.3201 25.072 77.6998 24.4233 77.2642 23.5852C76.8286 22.7424 76.6108 21.7457 76.6108 20.5952C76.6108 19.473 76.8286 18.4882 77.2642 17.6406C77.6998 16.7931 78.313 16.1326 79.1037 15.6591C79.8991 15.1856 80.8319 14.9489 81.902 14.9489C82.6217 14.9489 83.2917 15.0649 83.9119 15.2969C84.5369 15.5241 85.0814 15.8674 85.5455 16.3267C86.0142 16.786 86.3788 17.3636 86.6392 18.0597C86.8996 18.7509 87.0298 19.5606 87.0298 20.4886V21.3196H77.8182V19.4446H84.1818C84.1818 19.009 84.0871 18.6231 83.8977 18.2869C83.7083 17.9508 83.4455 17.688 83.1094 17.4986C82.7779 17.3045 82.392 17.2074 81.9517 17.2074C81.4924 17.2074 81.0852 17.3139 80.7301 17.527C80.3797 17.7353 80.1051 18.017 79.9062 18.3722C79.7074 18.7225 79.6056 19.1132 79.6009 19.544V21.3267C79.6009 21.8665 79.7003 22.3329 79.8991 22.7259C80.1027 23.1188 80.3892 23.4219 80.7585 23.6349C81.1278 23.848 81.5658 23.9545 82.0724 23.9545C82.4086 23.9545 82.7164 23.9072 82.9957 23.8125C83.2751 23.7178 83.5142 23.5758 83.7131 23.3864C83.9119 23.197 84.0634 22.965 84.1676 22.6903L86.9659 22.875C86.8239 23.5473 86.5327 24.1345 86.0923 24.6364C85.6567 25.1335 85.0933 25.5218 84.402 25.8011C83.7154 26.0758 82.9223 26.2131 82.0227 26.2131ZM93.9759 26.2131C92.8537 26.2131 91.8878 25.9858 91.0781 25.5312C90.2732 25.072 89.6529 24.4233 89.2173 23.5852C88.7817 22.7424 88.5639 21.7457 88.5639 20.5952C88.5639 19.473 88.7817 18.4882 89.2173 17.6406C89.6529 16.7931 90.2661 16.1326 91.0568 15.6591C91.8523 15.1856 92.785 14.9489 93.8551 14.9489C94.5748 14.9489 95.2448 15.0649 95.8651 15.2969C96.4901 15.5241 97.0346 15.8674 97.4986 16.3267C97.9673 16.786 98.3319 17.3636 98.5923 18.0597C98.8527 18.7509 98.983 19.5606 98.983 20.4886V21.3196H89.7713V19.4446H96.1349C96.1349 19.009 96.0402 18.6231 95.8509 18.2869C95.6615 17.9508 95.3987 17.688 95.0625 17.4986C94.7311 17.3045 94.3452 17.2074 93.9048 17.2074C93.4455 17.2074 93.0384 17.3139 92.6832 17.527C92.3329 17.7353 92.0582 18.017 91.8594 18.3722C91.6605 18.7225 91.5587 19.1132 91.554 19.544V21.3267C91.554 21.8665 91.6534 22.3329 91.8523 22.7259C92.0559 23.1188 92.3423 23.4219 92.7116 23.6349C93.081 23.848 93.5189 23.9545 94.0256 23.9545C94.3617 23.9545 94.6695 23.9072 94.9489 23.8125C95.2282 23.7178 95.4673 23.5758 95.6662 23.3864C95.8651 23.197 96.0166 22.965 96.1207 22.6903L98.919 22.875C98.777 23.5473 98.4858 24.1345 98.0455 24.6364C97.6098 25.1335 97.0464 25.5218 96.3551 25.8011C95.6686 26.0758 94.8755 26.2131 93.9759 26.2131ZM106.76 15.0909V17.3636H100.19V15.0909H106.76ZM101.682 12.4773H104.707V22.6477C104.707 22.9271 104.75 23.1449 104.835 23.3011C104.92 23.4527 105.039 23.5592 105.19 23.6207C105.347 23.6823 105.527 23.7131 105.73 23.7131C105.872 23.7131 106.014 23.7012 106.156 23.6776C106.298 23.6491 106.407 23.6278 106.483 23.6136L106.959 25.8651C106.807 25.9124 106.594 25.9669 106.32 26.0284C106.045 26.0947 105.711 26.1349 105.318 26.1491C104.589 26.1776 103.95 26.0805 103.401 25.858C102.856 25.6354 102.432 25.2898 102.129 24.821C101.826 24.3523 101.677 23.7604 101.682 23.0455V12.4773Z" fill="#FDD134"/>
<path d="M47.2642 47V32.4545H50.3395V38.456H56.5824V32.4545H59.6506V47H56.5824V40.9915H50.3395V47H47.2642ZM67.0582 47.2131C65.955 47.2131 65.0009 46.9787 64.196 46.5099C63.3958 46.0365 62.7779 45.3783 62.3423 44.5355C61.9067 43.688 61.6889 42.7055 61.6889 41.5881C61.6889 40.4612 61.9067 39.4763 62.3423 38.6335C62.7779 37.786 63.3958 37.1278 64.196 36.6591C65.0009 36.1856 65.955 35.9489 67.0582 35.9489C68.1615 35.9489 69.1132 36.1856 69.9134 36.6591C70.7183 37.1278 71.3385 37.786 71.7741 38.6335C72.2098 39.4763 72.4276 40.4612 72.4276 41.5881C72.4276 42.7055 72.2098 43.688 71.7741 44.5355C71.3385 45.3783 70.7183 46.0365 69.9134 46.5099C69.1132 46.9787 68.1615 47.2131 67.0582 47.2131ZM67.0724 44.8693C67.5743 44.8693 67.9934 44.7273 68.3295 44.4432C68.6657 44.1544 68.919 43.7614 69.0895 43.2642C69.2647 42.767 69.3523 42.2012 69.3523 41.5668C69.3523 40.9323 69.2647 40.3665 69.0895 39.8693C68.919 39.3722 68.6657 38.9792 68.3295 38.6903C67.9934 38.4015 67.5743 38.2571 67.0724 38.2571C66.5658 38.2571 66.1397 38.4015 65.794 38.6903C65.4531 38.9792 65.1951 39.3722 65.0199 39.8693C64.8494 40.3665 64.7642 40.9323 64.7642 41.5668C64.7642 42.2012 64.8494 42.767 65.0199 43.2642C65.1951 43.7614 65.4531 44.1544 65.794 44.4432C66.1397 44.7273 66.5658 44.8693 67.0724 44.8693ZM74.3949 47V36.0909H77.2784V38.0156H77.4062C77.6335 37.3764 78.0123 36.8722 78.5426 36.5028C79.0729 36.1335 79.7074 35.9489 80.446 35.9489C81.1941 35.9489 81.831 36.1359 82.3565 36.5099C82.8821 36.8793 83.2325 37.3812 83.4077 38.0156H83.5213C83.7438 37.3906 84.1463 36.8911 84.7287 36.517C85.3158 36.1383 86.0095 35.9489 86.8097 35.9489C87.8277 35.9489 88.6539 36.2732 89.2884 36.9219C89.9276 37.5658 90.2472 38.4796 90.2472 39.6634V47H87.2287V40.2599C87.2287 39.6539 87.0677 39.1993 86.7457 38.8963C86.4238 38.5933 86.0213 38.4418 85.5384 38.4418C84.9891 38.4418 84.5606 38.617 84.2528 38.9673C83.9451 39.313 83.7912 39.7699 83.7912 40.3381V47H80.858V40.196C80.858 39.661 80.7041 39.2348 80.3963 38.9176C80.0933 38.6004 79.6932 38.4418 79.196 38.4418C78.8598 38.4418 78.5568 38.527 78.2869 38.6974C78.0218 38.8632 77.8111 39.0975 77.6548 39.4006C77.4986 39.6989 77.4205 40.0492 77.4205 40.4517V47H74.3949ZM97.6087 47.2131C96.4865 47.2131 95.5206 46.9858 94.7109 46.5312C93.906 46.072 93.2857 45.4233 92.8501 44.5852C92.4145 43.7424 92.1967 42.7457 92.1967 41.5952C92.1967 40.473 92.4145 39.4882 92.8501 38.6406C93.2857 37.7931 93.8989 37.1326 94.6896 36.6591C95.4851 36.1856 96.4179 35.9489 97.4879 35.9489C98.2076 35.9489 98.8776 36.0649 99.4979 36.2969C100.123 36.5241 100.667 36.8674 101.131 37.3267C101.6 37.786 101.965 38.3636 102.225 39.0597C102.486 39.7509 102.616 40.5606 102.616 41.4886V42.3196H93.4041V40.4446H99.7678C99.7678 40.009 99.6731 39.6231 99.4837 39.2869C99.2943 38.9508 99.0315 38.688 98.6953 38.4986C98.3639 38.3045 97.978 38.2074 97.5376 38.2074C97.0784 38.2074 96.6712 38.3139 96.3161 38.527C95.9657 38.7353 95.6911 39.017 95.4922 39.3722C95.2933 39.7225 95.1915 40.1132 95.1868 40.544V42.3267C95.1868 42.8665 95.2862 43.3329 95.4851 43.7259C95.6887 44.1188 95.9751 44.4219 96.3445 44.6349C96.7138 44.848 97.1518 44.9545 97.6584 44.9545C97.9946 44.9545 98.3023 44.9072 98.5817 44.8125C98.861 44.7178 99.1001 44.5758 99.299 44.3864C99.4979 44.197 99.6494 43.965 99.7536 43.6903L102.552 43.875C102.41 44.5473 102.119 45.1345 101.678 45.6364C101.243 46.1335 100.679 46.5218 99.9879 46.8011C99.3014 47.0758 98.5083 47.2131 97.6087 47.2131Z" fill="#F74068"/>
<path d="M42.7465 6.59155H1V52H42.7465V6.59155Z" fill="white"/>
<path d="M40.1515 0H33.56V8.78873H40.1515V0Z" fill="white"/>
<path d="M18.9436 12.0845H6.49295V36.2535H18.9436V12.0845Z" fill="#D9D9D9" fill-opacity="0.01" stroke="#2E6EB9"/>
<path d="M37.6197 33.6902H22.2394V36.6198H37.6197V33.6902Z" fill="#2E6EB9"/>
<path d="M19.3098 24.1691H6.85915V24.9015H19.3098V24.1691Z" fill="#2E6EB9"/>
<path d="M28.831 42.4789C28.831 43.5613 28.158 44.6583 26.8726 45.5085C25.6082 46.3449 23.8409 46.8732 21.8732 46.8732C19.9055 46.8732 18.1382 46.3449 16.8738 45.5085C15.5885 44.6583 14.9155 43.5613 14.9155 42.4789" stroke="#2E6EB9"/>
<rect y="6" width="44" height="3" fill="white"/>
</svg>
