<svg width="149" height="73" viewBox="0 0 149 73" fill="none" xmlns="http://www.w3.org/2000/svg">
<path d="M74.5641 17.6673C74.4903 16.9225 74.1733 16.3439 73.6131 15.9315C73.053 15.5191 72.2928 15.3129 71.3326 15.3129C70.6801 15.3129 70.1292 15.4052 69.6799 15.5899C69.2306 15.7684 68.8859 16.0177 68.6458 16.3378C68.4119 16.6578 68.2949 17.021 68.2949 17.4272C68.2826 17.7658 68.3534 18.0612 68.5073 18.3136C68.6673 18.566 68.8859 18.7845 69.1628 18.9691C69.4398 19.1477 69.7599 19.3046 70.1231 19.44C70.4862 19.5693 70.874 19.6801 71.2864 19.7724L72.9853 20.1787C73.8101 20.3633 74.5672 20.6095 75.2566 20.9173C75.946 21.2251 76.5431 21.6036 77.0478 22.053C77.5525 22.5023 77.9434 23.0316 78.2204 23.641C78.5035 24.2504 78.6482 24.949 78.6543 25.7369C78.6482 26.8941 78.3527 27.8974 77.768 28.7468C77.1894 29.5901 76.3522 30.2457 75.2566 30.7135C74.1671 31.1751 72.8529 31.4059 71.3141 31.4059C69.7876 31.4059 68.4581 31.172 67.3255 30.7042C66.1991 30.2364 65.3189 29.544 64.6849 28.6268C64.057 27.7035 63.7277 26.5617 63.6969 25.2014H67.5655C67.6086 25.8354 67.7902 26.3647 68.1103 26.7895C68.4365 27.208 68.8705 27.525 69.4121 27.7405C69.96 27.9497 70.5786 28.0544 71.268 28.0544C71.945 28.0544 72.5329 27.9559 73.0315 27.7589C73.5362 27.562 73.927 27.288 74.204 26.9372C74.481 26.5863 74.6195 26.1832 74.6195 25.7277C74.6195 25.303 74.4933 24.9459 74.241 24.6566C73.9948 24.3674 73.6316 24.1211 73.1515 23.918C72.6775 23.7149 72.0958 23.5302 71.4065 23.364L69.3475 22.847C67.7533 22.4592 66.4945 21.8529 65.5712 21.0281C64.6479 20.2033 64.1894 19.0923 64.1955 17.695C64.1894 16.5501 64.494 15.5499 65.1096 14.6943C65.7313 13.8387 66.5838 13.1709 67.6671 12.6907C68.7504 12.2106 69.9815 11.9706 71.3603 11.9706C72.7637 11.9706 73.9886 12.2106 75.035 12.6907C76.0876 13.1709 76.9062 13.8387 77.491 14.6943C78.0757 15.5499 78.3773 16.5409 78.3958 17.6673H74.5641ZM84.0671 31.1382L80.2078 16.9564H84.1872L86.3846 26.4848H86.5139L88.8036 16.9564H92.7092L95.0359 26.4294H95.1559L97.3164 16.9564H101.287L97.4365 31.1382H93.2724L90.8349 22.2191H90.6595L88.222 31.1382H84.0671ZM109.492 31.4152C108.034 31.4152 106.778 31.1197 105.725 30.5288C104.679 29.9317 103.873 29.0885 103.306 27.999C102.74 26.9033 102.457 25.6076 102.457 24.1119C102.457 22.6531 102.74 21.3728 103.306 20.271C103.873 19.1692 104.67 18.3105 105.698 17.695C106.732 17.0795 107.944 16.7717 109.335 16.7717C110.271 16.7717 111.142 16.9225 111.948 17.2241C112.761 17.5196 113.469 17.9658 114.072 18.5629C114.681 19.16 115.155 19.9109 115.494 20.8157C115.832 21.7144 116.002 22.767 116.002 23.9734V25.0537H104.026V22.6162H112.299C112.299 22.0499 112.176 21.5482 111.93 21.1112C111.684 20.6742 111.342 20.3325 110.905 20.0863C110.474 19.834 109.973 19.7078 109.4 19.7078C108.803 19.7078 108.274 19.8463 107.812 20.1233C107.356 20.3941 106.999 20.7603 106.741 21.222C106.482 21.6775 106.35 22.1853 106.344 22.7454V25.0629C106.344 25.7646 106.473 26.3709 106.732 26.8818C106.996 27.3927 107.369 27.7866 107.849 28.0636C108.329 28.3406 108.898 28.4791 109.557 28.4791C109.994 28.4791 110.394 28.4175 110.757 28.2944C111.12 28.1713 111.431 27.9867 111.69 27.7405C111.948 27.4942 112.145 27.1926 112.281 26.8356L115.919 27.0757C115.734 27.9497 115.355 28.713 114.783 29.3655C114.217 30.0118 113.484 30.5165 112.585 30.8797C111.693 31.2367 110.662 31.4152 109.492 31.4152ZM125.031 31.4152C123.573 31.4152 122.317 31.1197 121.264 30.5288C120.218 29.9317 119.412 29.0885 118.845 27.999C118.279 26.9033 117.996 25.6076 117.996 24.1119C117.996 22.6531 118.279 21.3728 118.845 20.271C119.412 19.1692 120.209 18.3105 121.237 17.695C122.271 17.0795 123.483 16.7717 124.874 16.7717C125.81 16.7717 126.681 16.9225 127.487 17.2241C128.3 17.5196 129.008 17.9658 129.611 18.5629C130.22 19.16 130.694 19.9109 131.033 20.8157C131.371 21.7144 131.541 22.767 131.541 23.9734V25.0537H119.566V22.6162H127.838C127.838 22.0499 127.715 21.5482 127.469 21.1112C127.223 20.6742 126.881 20.3325 126.444 20.0863C126.013 19.834 125.512 19.7078 124.939 19.7078C124.342 19.7078 123.813 19.8463 123.351 20.1233C122.896 20.3941 122.539 20.7603 122.28 21.222C122.022 21.6775 121.889 22.1853 121.883 22.7454V25.0629C121.883 25.7646 122.012 26.3709 122.271 26.8818C122.535 27.3927 122.908 27.7866 123.388 28.0636C123.868 28.3406 124.437 28.4791 125.096 28.4791C125.533 28.4791 125.933 28.4175 126.296 28.2944C126.66 28.1713 126.97 27.9867 127.229 27.7405C127.487 27.4942 127.684 27.1926 127.82 26.8356L131.458 27.0757C131.273 27.9497 130.894 28.713 130.322 29.3655C129.756 30.0118 129.023 30.5165 128.124 30.8797C127.232 31.2367 126.201 31.4152 125.031 31.4152ZM141.651 16.9564V19.9109H133.11V16.9564H141.651ZM135.049 13.5586H138.982V26.7802C138.982 27.1434 139.038 27.4265 139.149 27.6297C139.259 27.8266 139.413 27.9651 139.61 28.0451C139.813 28.1252 140.047 28.1652 140.312 28.1652C140.497 28.1652 140.681 28.1498 140.866 28.119C141.051 28.0821 141.192 28.0544 141.291 28.0359L141.909 30.9628C141.712 31.0243 141.435 31.0951 141.078 31.1751C140.721 31.2613 140.287 31.3136 139.776 31.3321C138.829 31.369 137.998 31.2428 137.284 30.9535C136.576 30.6642 136.025 30.2149 135.631 29.6055C135.237 28.9961 135.043 28.2267 135.049 27.2973V13.5586Z" fill="#FDD134"/>
<path d="M64.3063 52.1382V33.2291H68.3042V41.0309H76.4199V33.2291H80.4086V52.1382H76.4199V44.3271H68.3042V52.1382H64.3063ZM90.0386 52.4152C88.6044 52.4152 87.3641 52.1105 86.3177 51.5011C85.2774 50.8856 84.4742 50.03 83.9079 48.9343C83.3416 47.8325 83.0584 46.5553 83.0584 45.1027C83.0584 43.6377 83.3416 42.3574 83.9079 41.2618C84.4742 40.16 85.2774 39.3044 86.3177 38.695C87.3641 38.0795 88.6044 37.7717 90.0386 37.7717C91.4727 37.7717 92.71 38.0795 93.7502 38.695C94.7966 39.3044 95.6029 40.16 96.1692 41.2618C96.7355 42.3574 97.0187 43.6377 97.0187 45.1027C97.0187 46.5553 96.7355 47.8325 96.1692 48.9343C95.6029 50.03 94.7966 50.8856 93.7502 51.5011C92.71 52.1105 91.4727 52.4152 90.0386 52.4152ZM90.057 49.3683C90.7095 49.3683 91.2542 49.1836 91.6913 48.8143C92.1283 48.4388 92.4576 47.928 92.6792 47.2816C92.9069 46.6353 93.0208 45.8998 93.0208 45.075C93.0208 44.2502 92.9069 43.5146 92.6792 42.8683C92.4576 42.222 92.1283 41.7111 91.6913 41.3356C91.2542 40.9602 90.7095 40.7724 90.057 40.7724C89.3984 40.7724 88.8444 40.9602 88.3951 41.3356C87.9519 41.7111 87.6164 42.222 87.3887 42.8683C87.1671 43.5146 87.0563 44.2502 87.0563 45.075C87.0563 45.8998 87.1671 46.6353 87.3887 47.2816C87.6164 47.928 87.9519 48.4388 88.3951 48.8143C88.8444 49.1836 89.3984 49.3683 90.057 49.3683ZM99.5762 52.1382V37.9564H103.325V40.4585H103.491C103.786 39.6275 104.279 38.972 104.968 38.4919C105.658 38.0118 106.482 37.7717 107.443 37.7717C108.415 37.7717 109.243 38.0148 109.926 38.5011C110.61 38.9812 111.065 39.6337 111.293 40.4585H111.441C111.73 39.646 112.253 38.9966 113.01 38.5103C113.773 38.0179 114.675 37.7717 115.715 37.7717C117.039 37.7717 118.113 38.1933 118.938 39.0366C119.769 39.8737 120.184 41.0617 120.184 42.6005V52.1382H116.26V43.3761C116.26 42.5882 116.051 41.9973 115.632 41.6034C115.214 41.2094 114.691 41.0125 114.063 41.0125C113.349 41.0125 112.792 41.2402 112.392 41.6957C111.991 42.145 111.791 42.739 111.791 43.4777V52.1382H107.978V43.293C107.978 42.5975 107.778 42.0435 107.378 41.6311C106.984 41.2187 106.464 41.0125 105.818 41.0125C105.381 41.0125 104.987 41.1233 104.636 41.3449C104.291 41.5603 104.017 41.865 103.814 42.2589C103.611 42.6467 103.509 43.1022 103.509 43.6254V52.1382H99.5762ZM129.754 52.4152C128.295 52.4152 127.04 52.1197 125.987 51.5288C124.941 50.9317 124.134 50.0885 123.568 48.999C123.002 47.9033 122.719 46.6076 122.719 45.1119C122.719 43.6531 123.002 42.3728 123.568 41.271C124.134 40.1692 124.931 39.3105 125.959 38.695C126.993 38.0795 128.206 37.7717 129.597 37.7717C130.533 37.7717 131.404 37.9225 132.21 38.2241C133.023 38.5196 133.73 38.9658 134.334 39.5629C134.943 40.16 135.417 40.9109 135.756 41.8157C136.094 42.7144 136.263 43.767 136.263 44.9734V46.0537H124.288V43.6162H132.561C132.561 43.0499 132.438 42.5482 132.192 42.1112C131.945 41.6742 131.604 41.3325 131.167 41.0863C130.736 40.834 130.234 40.7078 129.662 40.7078C129.065 40.7078 128.535 40.8463 128.074 41.1233C127.618 41.3941 127.261 41.7603 127.003 42.222C126.744 42.6775 126.612 43.1853 126.606 43.7454V46.0629C126.606 46.7646 126.735 47.3709 126.993 47.8818C127.258 48.3927 127.631 48.7866 128.111 49.0636C128.591 49.3406 129.16 49.4791 129.819 49.4791C130.256 49.4791 130.656 49.4175 131.019 49.2944C131.382 49.1713 131.693 48.9867 131.952 48.7405C132.21 48.4942 132.407 48.1926 132.542 47.8356L136.18 48.0757C135.996 48.9497 135.617 49.713 135.045 50.3655C134.478 51.0118 133.746 51.5165 132.847 51.8797C131.955 52.2367 130.924 52.4152 129.754 52.4152Z" fill="#F74068"/>
<g clip-path="url(#clip0_54_43)">
<path d="M58.1333 9.17896H0V72.4118H58.1333V9.17896Z" fill="white"/>
<path d="M48.9544 0H39.7755V12.2386H48.9544V0Z" fill="white"/>
<path d="M24.9871 16.8281H7.64911V50.4843H24.9871V16.8281Z" fill="#D9D9D9" fill-opacity="0.01" stroke="#29144B"/>
<path d="M50.9942 46.9147H29.5766V50.9942H50.9942V46.9147Z" fill="#29144B"/>
<path d="M25.4971 33.6561H8.15906V34.676H25.4971V33.6561Z" fill="#29144B"/>
<path d="M38.7556 59.1533C38.7556 60.6606 37.8184 62.1883 36.0285 63.3722C34.2678 64.5369 31.8068 65.2726 29.0667 65.2726C26.3266 65.2726 23.8656 64.5369 22.1049 63.3722C20.315 62.1883 19.3778 60.6606 19.3778 59.1533" stroke="#14204B"/>
</g>
<defs>
<clipPath id="clip0_54_43">
<rect width="58.1333" height="72.4118" fill="white"/>
</clipPath>
</defs>
</svg>
